<svg version="1.1" id="Layer_1" xmlns="http://www.w3.org/2000/svg" xmlns:xlink="http://www.w3.org/1999/xlink" x="0px" y="0px"
	 width="100%" viewBox="173 113 267 267" enable-background="new 0 0 608 480" xml:space="preserve">
<path fill="#FFD700" opacity="1.000000" stroke="none" 
	d="
M329.538391,134.468536 
	C334.207428,139.225494 338.987396,143.443970 342.977051,148.310379 
	C360.342743,169.492279 356.125946,200.565369 333.902649,216.612808 
	C331.569489,218.297592 329.308197,220.079453 326.784271,216.493866 
	C324.529846,213.291138 325.086578,211.427048 328.274048,209.250809 
	C347.472076,196.143509 350.617310,169.781265 334.837494,152.600525 
	C326.965424,144.029572 318.371979,136.124741 310.242218,127.784706 
	C307.781189,125.260025 306.108765,125.443153 303.718536,127.926422 
	C297.026825,134.878540 290.096436,141.600815 283.268463,148.421997 
	C281.852966,149.836075 280.557281,151.525116 278.174927,150.674271 
	C276.339813,150.018860 273.954681,150.001236 273.112885,147.933701 
	C272.219666,145.739853 274.437531,144.730728 275.637512,143.517181 
	C284.992676,134.056274 294.479614,124.724937 303.777985,115.209068 
	C306.419464,112.505760 308.110535,112.771309 310.638580,115.465065 
	C316.670258,121.892128 323.047729,127.994652 329.538391,134.468536 
z"/>
<path fill="#C0C0C0" opacity="1.000000" stroke="none" 
	d="
M406.761292,224.211426 
	C400.763885,218.411301 400.736237,218.164871 405.141022,211.578842 
	C407.177521,211.192184 408.053467,212.945740 409.135834,214.029221 
	C418.666382,223.569656 428.049957,233.257828 437.640137,242.737259 
	C440.061676,245.130829 440.315552,246.688873 437.757507,249.202667 
	C427.541809,259.241516 417.633575,269.593719 407.398041,279.611847 
	C386.903381,299.671204 351.590332,295.869720 335.753601,272.031158 
	C334.353912,269.924225 333.456085,267.946167 336.202484,266.069397 
	C338.896454,264.228455 341.151123,263.595856 343.324646,266.906311 
	C348.238190,274.390045 354.832062,279.846588 363.566376,282.261963 
	C377.244934,286.044678 389.801392,283.567291 400.306213,273.983856 
	C408.908020,266.136566 416.736450,257.447601 425.122375,249.354156 
	C427.886597,246.686325 427.612640,244.898407 425.064697,242.434204 
	C418.963104,236.533188 413.029755,230.458206 406.761292,224.211426 
z"/>
<path fill="#C0C0C0" opacity="1.000000" stroke="none" 
	d="
M283.497742,356.501373 
	C275.760284,348.717468 267.840515,341.628082 263.673889,331.347534 
	C255.644836,311.537079 262.976532,286.953461 280.759674,275.083954 
	C283.079163,273.535828 284.989471,272.550507 287.103973,275.420105 
	C289.243652,278.323914 288.954987,280.427551 285.897949,282.421143 
	C270.836578,292.243042 265.906464,311.286377 271.067657,325.952972 
	C272.805389,330.891113 275.297180,335.436798 278.895569,339.166199 
	C287.105896,347.675385 295.635223,355.876556 303.858154,364.373932 
	C306.614899,367.222687 308.372253,366.485077 310.765900,363.968231 
	C316.847656,357.573517 323.152374,351.390594 329.379730,345.134705 
	C334.309387,340.182434 335.625275,340.112762 341.978271,344.741028 
	C337.209747,349.655884 332.535614,354.569580 327.754272,359.376617 
	C322.000763,365.161072 316.027771,370.732788 310.407501,376.641724 
	C307.780060,379.404114 305.936279,379.162689 303.456696,376.599091 
	C296.973694,369.896423 290.329559,363.349609 283.497742,356.501373 
z"/>
<path fill="#C0C0C0" opacity="1.000000" stroke="none" 
	d="
M207.630341,211.607574 
	C229.354034,192.483276 261.654297,196.387451 278.061310,219.763062 
	C279.942291,222.442993 280.198395,224.318893 277.234070,226.365448 
	C274.380005,228.335861 272.450409,227.873688 270.656860,225.050781 
	C257.883179,204.946335 228.143265,201.549698 210.307678,221.177887 
	C203.592285,228.568253 196.327637,235.474396 189.095978,242.373398 
	C186.207672,245.128845 186.373901,247.027893 189.147751,249.677628 
	C195.410660,255.660339 201.449051,261.878357 207.568558,268.010834 
	C212.838058,273.291443 212.841187,273.371613 209.093719,280.356476 
	C207.043457,280.783264 206.226990,279.000702 205.133026,277.917145 
	C195.544083,268.419342 186.109818,258.762848 176.402466,249.388702 
	C173.581375,246.664429 174.002716,245.050217 176.561783,242.548798 
	C186.928467,232.415634 197.117569,222.100784 207.630341,211.607574 
z"/>
<path fill="#C0C0C0" opacity="1.000000" stroke="none" 
	d="
M401.304810,154.526672 
	C401.320190,169.962753 401.361481,184.952774 401.312897,199.942505 
	C401.236481,223.524307 381.092682,243.867340 357.447479,244.327377 
	C353.623962,244.401779 349.797729,244.813690 345.995270,244.028946 
	C343.425385,243.498566 340.982910,243.006134 341.803741,239.332855 
	C342.517029,236.140930 343.621948,234.469803 347.549591,235.149673 
	C364.394287,238.065521 377.625549,232.051270 387.076202,217.949432 
	C390.633026,212.642120 392.769592,206.689758 392.764587,200.131256 
	C392.755798,188.639114 392.632111,177.143036 392.902374,165.656738 
	C393.007812,161.176544 391.325531,159.873398 387.067169,160.003525 
	C378.746979,160.257812 370.413849,160.069855 362.086304,160.109619 
	C354.324951,160.146698 354.325073,160.172195 351.795807,152.432037 
	C352.552704,151.105331 353.844513,151.624329 354.925903,151.622253 
	C368.916351,151.595413 382.906860,151.595627 396.897369,151.614014 
	C398.784424,151.616501 401.165436,150.879135 401.304810,154.526672 
z"/>
<path fill="#C0C0C0" opacity="1.000000" stroke="none" 
	d="
M237.697342,252.556885 
	C247.571884,247.364258 257.723602,246.712418 268.155060,248.211426 
	C270.801788,248.591736 273.134125,249.301987 272.024750,252.972458 
	C271.170471,255.798874 270.341370,257.560699 266.558411,256.820068 
	C239.999832,251.620163 219.987900,273.936523 221.143036,295.221527 
	C221.710724,305.682098 221.374176,316.201874 221.165237,326.689270 
	C221.086868,330.622375 222.502014,331.995422 226.361740,331.922943 
	C235.018021,331.760406 243.679855,331.894928 252.339432,331.906799 
	C259.813538,331.917023 259.813538,331.915985 262.354919,339.920013 
	C245.882751,339.920013 229.559601,339.920013 212.643692,339.920013 
	C212.643692,331.880157 212.463120,323.769287 212.688126,315.669647 
	C212.987854,304.880005 211.333450,293.979950 213.770844,283.315063 
	C216.909668,269.581146 224.820633,259.315125 237.697342,252.556885 
z"/>
<path fill="#C0C0C0" opacity="1.000000" stroke="none" 
	d="
M392.820679,313.999023 
	C392.822052,309.002045 392.834900,304.504395 392.822540,300.006836 
	C392.804535,293.447571 393.170227,293.008942 400.325684,291.273987 
	C401.817871,292.532959 401.294556,294.309875 401.299896,295.873932 
	C401.344391,308.866852 401.201172,321.861694 401.387299,334.852051 
	C401.444153,338.821289 400.424805,340.478851 396.113129,340.414185 
	C381.291138,340.192017 366.462280,340.459320 351.638855,340.292053 
	C329.247345,340.039368 308.984680,319.604279 308.711395,297.130737 
	C308.658997,292.822601 308.454163,288.526978 309.403625,284.206268 
	C310.175873,280.692139 312.067841,280.546143 314.864319,281.149811 
	C317.754242,281.773621 318.444916,283.176239 317.836792,286.153870 
	C313.068665,309.499878 330.137177,329.358337 349.458557,331.386444 
	C360.833252,332.580444 372.418976,331.845825 383.909546,331.829529 
	C393.525818,331.815887 392.770844,332.924561 392.800262,322.994049 
	C392.808655,320.162170 392.814087,317.330292 392.820679,313.999023 
z"/>
<path fill="#C0C0C0" opacity="1.000000" stroke="none" 
	d="
M296.748260,209.861755 
	C295.223755,208.494492 295.919342,207.246521 296.192291,205.950180 
	C301.053711,182.861786 283.727783,160.733337 260.259552,160.231079 
	C249.106384,159.992386 237.941696,160.280029 226.789230,160.024033 
	C222.373886,159.922668 221.018555,161.517761 221.150604,165.846390 
	C221.424637,174.830536 221.244064,183.829681 221.191269,192.822296 
	C221.156723,198.708176 220.011475,199.828430 213.059235,200.696854 
	C213.059235,184.604538 213.059235,168.562027 213.059235,152.345291 
	C214.484390,151.105606 216.401581,151.651398 218.163895,151.646149 
	C232.152771,151.604523 246.142136,151.575577 260.130798,151.649490 
	C285.063477,151.781219 305.110229,171.769409 305.376251,196.700256 
	C305.402893,199.197189 305.421051,201.702637 305.255188,204.191605 
	C304.776520,211.373779 303.949524,211.935257 296.748260,209.861755 
z"/>
<path fill="#FFD700" opacity="1.000000" stroke="none" 
	d="
M269.287048,176.246857 
	C269.093994,197.502914 282.403198,212.920456 302.991760,215.770309 
	C304.474121,215.975494 306.218445,215.938812 307.157959,217.161179 
	C308.549652,218.971878 310.459503,221.084137 309.790802,223.356720 
	C308.980713,226.109741 306.114136,224.929352 304.114227,224.855515 
	C280.399323,223.979797 260.724884,203.595642 260.670441,179.887238 
	C260.661285,175.904938 260.481293,171.927734 261.492157,167.970001 
	C262.072968,165.695923 262.705719,164.085831 265.392365,164.877151 
	C267.701508,165.557266 270.641815,165.688812 270.174408,169.362335 
	C269.901459,171.507523 269.594269,173.648376 269.287048,176.246857 
z"/>
<path fill="#C0C0C0" opacity="1.000000" stroke="none" 
	d="
M317.266541,268.284729 
	C342.694977,275.558655 355.977295,295.101624 353.179840,320.646393 
	C352.508301,326.778198 350.490723,328.303467 345.762360,326.446777 
	C343.846893,325.694580 343.244415,324.669647 343.754974,322.636047 
	C349.339355,300.394043 333.581451,278.677490 311.494354,276.386902 
	C305.717316,275.787781 304.791016,272.191315 303.578064,267.211792 
	C308.361633,267.554230 312.609528,267.858307 317.266541,268.284729 
z"/>
<path fill="#C0C0C0" opacity="1.000000" stroke="none" 
	d="
M286.294495,266.016357 
	C287.152344,263.537598 287.281342,261.063934 289.397064,259.555206 
	C292.037933,259.952148 293.205963,262.173798 294.687836,263.851013 
	C312.558807,284.077942 307.917419,317.877106 285.325653,332.626617 
	C282.935486,334.187103 280.926971,335.582275 278.727936,332.161591 
	C276.774261,329.122650 277.211517,327.471710 280.196655,325.318573 
	C292.685577,316.310364 298.368378,303.964172 296.592224,288.606293 
	C295.945160,283.010986 293.821838,277.741608 290.537903,272.994019 
	C289.048706,270.841095 286.818573,269.133606 286.294495,266.016357 
z"/>
<path fill="#C0C0C0" opacity="1.000000" stroke="none" 
	d="
M318.380249,188.457199 
	C315.143890,200.811234 317.773804,211.583893 325.232086,221.205704 
	C327.318726,223.897583 327.625458,226.300369 326.485931,229.457352 
	C325.200043,233.019821 323.801056,233.259598 321.336609,230.589401 
	C314.849884,223.561005 310.292877,215.414368 309.037964,205.965454 
	C306.546875,187.208969 312.387970,171.536713 327.733368,159.893646 
	C330.334717,157.919922 332.919556,155.988632 335.492432,160.301895 
	C337.113098,163.018875 336.943176,164.506973 334.226196,166.364334 
	C326.444641,171.683960 320.812286,178.709274 318.380249,188.457199 
z"/>
<path fill="#C0C0C0" opacity="1.000000" stroke="none" 
	d="
M268.646362,234.802429 
	C273.715454,233.309906 278.206024,231.359711 281.818390,228.130219 
	C285.902618,224.478882 289.515137,225.396500 293.831390,228.290359 
	C291.650482,232.599823 287.860413,234.974823 284.192200,237.353973 
	C263.085968,251.043045 233.740814,244.845795 220.237320,224.048462 
	C218.433121,221.269699 218.187393,219.364914 221.189865,217.458298 
	C224.088608,215.617569 225.830048,216.407791 227.741913,219.139954 
	C237.392548,232.931351 252.392960,238.672897 268.646362,234.802429 
z"/>
<path fill="#C0C0C0" opacity="1.000000" stroke="none" 
	d="
M269.506165,281.544006 
	C257.722168,291.329376 244.491684,294.036133 229.968048,291.661682 
	C227.106918,291.193909 225.425735,290.276337 226.289200,286.744507 
	C227.073502,283.536560 228.263992,282.369537 231.761719,282.988220 
	C254.954269,287.090240 274.395325,272.548065 276.752930,249.292816 
	C277.267395,244.217972 281.113495,244.257202 284.316193,242.929535 
	C288.384155,252.604675 281.099792,272.708405 269.506165,281.544006 
z"/>
<path fill="#C0C0C0" opacity="1.000000" stroke="none" 
	d="
M392.021881,274.991333 
	C389.385284,276.655518 388.132660,275.307495 386.799713,273.544098 
	C371.785583,253.680801 351.102356,250.390564 331.077393,264.611298 
	C330.144287,265.273926 329.123169,266.178528 328.087860,266.258789 
	C325.566772,266.454315 322.666229,265.960480 321.372070,263.891235 
	C319.868591,261.487274 322.745148,260.171265 324.224762,258.834564 
	C344.690613,240.345459 378.595642,244.849243 393.720886,267.894958 
	C395.760651,271.002899 395.462769,273.024780 392.021881,274.991333 
z"/>
<path fill="#C0C0C0" opacity="1.000000" stroke="none" 
	d="
M370.210785,199.685165 
	C375.326691,199.810944 379.973602,199.370514 384.606018,200.443253 
	C387.258179,201.057434 388.435822,202.090149 387.762604,204.860641 
	C387.130920,207.460205 386.488434,209.659744 382.889343,208.937149 
	C372.663300,206.884033 363.013550,208.425522 354.226227,214.232040 
	C344.843231,220.432175 339.136932,229.161301 337.368256,240.223511 
	C336.254761,247.187775 336.441284,247.339691 329.092163,248.986664 
	C324.852234,226.124161 344.302002,202.535248 370.210785,199.685165 
z"/>
</svg>